<mxfile host="app.diagrams.net" modified="2023-11-14T16:00:51.737Z" agent="Mozilla/5.0 (Windows NT 10.0; Win64; x64) AppleWebKit/537.36 (KHTML, like Gecko) Chrome/119.0.0.0 Safari/537.36" version="22.1.0" etag="kQdZ6FicSz2UDN2D8BOh" type="device">
  <diagram id="C5RBs43oDa-KdzZeNtuy" name="Page-1">
    <mxGraphModel dx="1434" dy="758" grid="1" gridSize="10" guides="1" tooltips="1" connect="1" arrows="1" fold="1" page="1" pageScale="1" pageWidth="1169" pageHeight="827" math="0" shadow="0">
      <root>
        <mxCell id="WIyWlLk6GJQsqaUBKTNV-0" />
        <mxCell id="WIyWlLk6GJQsqaUBKTNV-1" parent="WIyWlLk6GJQsqaUBKTNV-0" />
        <mxCell id="979sxYHgOyVCNlJxATBu-2" style="edgeStyle=orthogonalEdgeStyle;rounded=0;orthogonalLoop=1;jettySize=auto;html=1;exitX=1;exitY=0.5;exitDx=0;exitDy=0;dashed=1;" edge="1" parent="WIyWlLk6GJQsqaUBKTNV-1" source="979sxYHgOyVCNlJxATBu-0" target="979sxYHgOyVCNlJxATBu-1">
          <mxGeometry relative="1" as="geometry" />
        </mxCell>
        <mxCell id="979sxYHgOyVCNlJxATBu-5" style="edgeStyle=orthogonalEdgeStyle;rounded=0;orthogonalLoop=1;jettySize=auto;html=1;exitX=0.5;exitY=1;exitDx=0;exitDy=0;entryX=0.5;entryY=0;entryDx=0;entryDy=0;dashed=1;" edge="1" parent="WIyWlLk6GJQsqaUBKTNV-1" source="979sxYHgOyVCNlJxATBu-0" target="979sxYHgOyVCNlJxATBu-3">
          <mxGeometry relative="1" as="geometry">
            <Array as="points">
              <mxPoint x="584" y="100" />
              <mxPoint x="510" y="100" />
            </Array>
          </mxGeometry>
        </mxCell>
        <mxCell id="979sxYHgOyVCNlJxATBu-8" style="edgeStyle=orthogonalEdgeStyle;rounded=0;orthogonalLoop=1;jettySize=auto;html=1;exitX=0.5;exitY=1;exitDx=0;exitDy=0;entryX=0.5;entryY=0;entryDx=0;entryDy=0;dashed=1;" edge="1" parent="WIyWlLk6GJQsqaUBKTNV-1" source="979sxYHgOyVCNlJxATBu-0" target="979sxYHgOyVCNlJxATBu-4">
          <mxGeometry relative="1" as="geometry">
            <Array as="points">
              <mxPoint x="584" y="100" />
              <mxPoint x="660" y="100" />
            </Array>
          </mxGeometry>
        </mxCell>
        <mxCell id="979sxYHgOyVCNlJxATBu-10" style="edgeStyle=orthogonalEdgeStyle;rounded=0;orthogonalLoop=1;jettySize=auto;html=1;exitX=0;exitY=0.5;exitDx=0;exitDy=0;entryX=0.5;entryY=0;entryDx=0;entryDy=0;dashed=1;" edge="1" parent="WIyWlLk6GJQsqaUBKTNV-1" source="979sxYHgOyVCNlJxATBu-0" target="979sxYHgOyVCNlJxATBu-9">
          <mxGeometry relative="1" as="geometry" />
        </mxCell>
        <mxCell id="979sxYHgOyVCNlJxATBu-12" style="edgeStyle=orthogonalEdgeStyle;rounded=0;orthogonalLoop=1;jettySize=auto;html=1;exitX=0;exitY=0.5;exitDx=0;exitDy=0;entryX=0.5;entryY=0;entryDx=0;entryDy=0;dashed=1;" edge="1" parent="WIyWlLk6GJQsqaUBKTNV-1" source="979sxYHgOyVCNlJxATBu-0" target="979sxYHgOyVCNlJxATBu-11">
          <mxGeometry relative="1" as="geometry" />
        </mxCell>
        <mxCell id="979sxYHgOyVCNlJxATBu-15" style="edgeStyle=orthogonalEdgeStyle;rounded=0;orthogonalLoop=1;jettySize=auto;html=1;exitX=1;exitY=0.5;exitDx=0;exitDy=0;entryX=0.5;entryY=0;entryDx=0;entryDy=0;dashed=1;" edge="1" parent="WIyWlLk6GJQsqaUBKTNV-1" source="979sxYHgOyVCNlJxATBu-0" target="979sxYHgOyVCNlJxATBu-13">
          <mxGeometry relative="1" as="geometry" />
        </mxCell>
        <mxCell id="979sxYHgOyVCNlJxATBu-0" value="QuestionTable" style="rounded=0;whiteSpace=wrap;html=1;" vertex="1" parent="WIyWlLk6GJQsqaUBKTNV-1">
          <mxGeometry x="524" y="30" width="120" height="60" as="geometry" />
        </mxCell>
        <mxCell id="979sxYHgOyVCNlJxATBu-1" value="QuestionPagination" style="rounded=0;whiteSpace=wrap;html=1;" vertex="1" parent="WIyWlLk6GJQsqaUBKTNV-1">
          <mxGeometry x="740" y="120" width="120" height="60" as="geometry" />
        </mxCell>
        <mxCell id="979sxYHgOyVCNlJxATBu-17" style="edgeStyle=orthogonalEdgeStyle;rounded=0;orthogonalLoop=1;jettySize=auto;html=1;exitX=0.5;exitY=1;exitDx=0;exitDy=0;entryX=0.5;entryY=0;entryDx=0;entryDy=0;dashed=1;" edge="1" parent="WIyWlLk6GJQsqaUBKTNV-1" source="979sxYHgOyVCNlJxATBu-3" target="979sxYHgOyVCNlJxATBu-16">
          <mxGeometry relative="1" as="geometry" />
        </mxCell>
        <mxCell id="979sxYHgOyVCNlJxATBu-19" style="edgeStyle=orthogonalEdgeStyle;rounded=0;orthogonalLoop=1;jettySize=auto;html=1;exitX=0.5;exitY=1;exitDx=0;exitDy=0;entryX=0.5;entryY=0;entryDx=0;entryDy=0;dashed=1;" edge="1" parent="WIyWlLk6GJQsqaUBKTNV-1" source="979sxYHgOyVCNlJxATBu-3" target="979sxYHgOyVCNlJxATBu-18">
          <mxGeometry relative="1" as="geometry" />
        </mxCell>
        <mxCell id="979sxYHgOyVCNlJxATBu-21" style="edgeStyle=orthogonalEdgeStyle;rounded=0;orthogonalLoop=1;jettySize=auto;html=1;exitX=0.5;exitY=1;exitDx=0;exitDy=0;entryX=0.5;entryY=0;entryDx=0;entryDy=0;dashed=1;" edge="1" parent="WIyWlLk6GJQsqaUBKTNV-1" source="979sxYHgOyVCNlJxATBu-3" target="979sxYHgOyVCNlJxATBu-20">
          <mxGeometry relative="1" as="geometry" />
        </mxCell>
        <mxCell id="979sxYHgOyVCNlJxATBu-23" style="edgeStyle=orthogonalEdgeStyle;rounded=0;orthogonalLoop=1;jettySize=auto;html=1;exitX=0.5;exitY=1;exitDx=0;exitDy=0;entryX=0.5;entryY=0;entryDx=0;entryDy=0;dashed=1;" edge="1" parent="WIyWlLk6GJQsqaUBKTNV-1" source="979sxYHgOyVCNlJxATBu-3" target="979sxYHgOyVCNlJxATBu-22">
          <mxGeometry relative="1" as="geometry" />
        </mxCell>
        <mxCell id="979sxYHgOyVCNlJxATBu-25" style="edgeStyle=orthogonalEdgeStyle;rounded=0;orthogonalLoop=1;jettySize=auto;html=1;exitX=0.5;exitY=1;exitDx=0;exitDy=0;entryX=0.5;entryY=0;entryDx=0;entryDy=0;dashed=1;" edge="1" parent="WIyWlLk6GJQsqaUBKTNV-1" source="979sxYHgOyVCNlJxATBu-3" target="979sxYHgOyVCNlJxATBu-24">
          <mxGeometry relative="1" as="geometry" />
        </mxCell>
        <mxCell id="979sxYHgOyVCNlJxATBu-27" style="edgeStyle=orthogonalEdgeStyle;rounded=0;orthogonalLoop=1;jettySize=auto;html=1;exitX=0.5;exitY=1;exitDx=0;exitDy=0;entryX=0.5;entryY=0;entryDx=0;entryDy=0;dashed=1;" edge="1" parent="WIyWlLk6GJQsqaUBKTNV-1" source="979sxYHgOyVCNlJxATBu-3" target="979sxYHgOyVCNlJxATBu-26">
          <mxGeometry relative="1" as="geometry" />
        </mxCell>
        <mxCell id="979sxYHgOyVCNlJxATBu-29" style="edgeStyle=orthogonalEdgeStyle;rounded=0;orthogonalLoop=1;jettySize=auto;html=1;exitX=0.5;exitY=1;exitDx=0;exitDy=0;entryX=0.5;entryY=0;entryDx=0;entryDy=0;dashed=1;" edge="1" parent="WIyWlLk6GJQsqaUBKTNV-1" source="979sxYHgOyVCNlJxATBu-3" target="979sxYHgOyVCNlJxATBu-28">
          <mxGeometry relative="1" as="geometry" />
        </mxCell>
        <mxCell id="979sxYHgOyVCNlJxATBu-33" style="edgeStyle=orthogonalEdgeStyle;rounded=0;orthogonalLoop=1;jettySize=auto;html=1;exitX=0.5;exitY=1;exitDx=0;exitDy=0;entryX=0.5;entryY=0;entryDx=0;entryDy=0;dashed=1;" edge="1" parent="WIyWlLk6GJQsqaUBKTNV-1" source="979sxYHgOyVCNlJxATBu-3" target="979sxYHgOyVCNlJxATBu-32">
          <mxGeometry relative="1" as="geometry" />
        </mxCell>
        <mxCell id="979sxYHgOyVCNlJxATBu-34" style="edgeStyle=orthogonalEdgeStyle;rounded=0;orthogonalLoop=1;jettySize=auto;html=1;exitX=0.5;exitY=1;exitDx=0;exitDy=0;entryX=0.5;entryY=0;entryDx=0;entryDy=0;dashed=1;" edge="1" parent="WIyWlLk6GJQsqaUBKTNV-1" source="979sxYHgOyVCNlJxATBu-3" target="979sxYHgOyVCNlJxATBu-30">
          <mxGeometry relative="1" as="geometry" />
        </mxCell>
        <mxCell id="979sxYHgOyVCNlJxATBu-3" value="AddQuestionModal" style="rounded=0;whiteSpace=wrap;html=1;" vertex="1" parent="WIyWlLk6GJQsqaUBKTNV-1">
          <mxGeometry x="450" y="120" width="120" height="60" as="geometry" />
        </mxCell>
        <mxCell id="979sxYHgOyVCNlJxATBu-38" style="edgeStyle=orthogonalEdgeStyle;rounded=0;orthogonalLoop=1;jettySize=auto;html=1;exitX=0.5;exitY=1;exitDx=0;exitDy=0;entryX=0.5;entryY=0;entryDx=0;entryDy=0;dashed=1;" edge="1" parent="WIyWlLk6GJQsqaUBKTNV-1" source="979sxYHgOyVCNlJxATBu-4" target="979sxYHgOyVCNlJxATBu-18">
          <mxGeometry relative="1" as="geometry">
            <Array as="points">
              <mxPoint x="660" y="240" />
              <mxPoint x="216" y="240" />
            </Array>
          </mxGeometry>
        </mxCell>
        <mxCell id="979sxYHgOyVCNlJxATBu-39" style="edgeStyle=orthogonalEdgeStyle;rounded=0;orthogonalLoop=1;jettySize=auto;html=1;exitX=0.5;exitY=1;exitDx=0;exitDy=0;entryX=0.5;entryY=0;entryDx=0;entryDy=0;dashed=1;" edge="1" parent="WIyWlLk6GJQsqaUBKTNV-1" source="979sxYHgOyVCNlJxATBu-4" target="979sxYHgOyVCNlJxATBu-20">
          <mxGeometry relative="1" as="geometry">
            <Array as="points">
              <mxPoint x="660" y="240" />
              <mxPoint x="347" y="240" />
            </Array>
          </mxGeometry>
        </mxCell>
        <mxCell id="979sxYHgOyVCNlJxATBu-40" style="edgeStyle=orthogonalEdgeStyle;rounded=0;orthogonalLoop=1;jettySize=auto;html=1;exitX=0.5;exitY=1;exitDx=0;exitDy=0;entryX=0.5;entryY=0;entryDx=0;entryDy=0;dashed=1;" edge="1" parent="WIyWlLk6GJQsqaUBKTNV-1" source="979sxYHgOyVCNlJxATBu-4" target="979sxYHgOyVCNlJxATBu-22">
          <mxGeometry relative="1" as="geometry">
            <Array as="points">
              <mxPoint x="660" y="240" />
              <mxPoint x="470" y="240" />
            </Array>
          </mxGeometry>
        </mxCell>
        <mxCell id="979sxYHgOyVCNlJxATBu-41" style="edgeStyle=orthogonalEdgeStyle;rounded=0;orthogonalLoop=1;jettySize=auto;html=1;exitX=0.5;exitY=1;exitDx=0;exitDy=0;entryX=0.5;entryY=0;entryDx=0;entryDy=0;dashed=1;" edge="1" parent="WIyWlLk6GJQsqaUBKTNV-1" source="979sxYHgOyVCNlJxATBu-4" target="979sxYHgOyVCNlJxATBu-24">
          <mxGeometry relative="1" as="geometry">
            <Array as="points">
              <mxPoint x="660" y="240" />
              <mxPoint x="592" y="240" />
            </Array>
          </mxGeometry>
        </mxCell>
        <mxCell id="979sxYHgOyVCNlJxATBu-42" style="edgeStyle=orthogonalEdgeStyle;rounded=0;orthogonalLoop=1;jettySize=auto;html=1;exitX=0.5;exitY=1;exitDx=0;exitDy=0;entryX=0.5;entryY=0;entryDx=0;entryDy=0;dashed=1;" edge="1" parent="WIyWlLk6GJQsqaUBKTNV-1" source="979sxYHgOyVCNlJxATBu-4" target="979sxYHgOyVCNlJxATBu-26">
          <mxGeometry relative="1" as="geometry">
            <Array as="points">
              <mxPoint x="660" y="240" />
              <mxPoint x="715" y="240" />
            </Array>
          </mxGeometry>
        </mxCell>
        <mxCell id="979sxYHgOyVCNlJxATBu-43" style="edgeStyle=orthogonalEdgeStyle;rounded=0;orthogonalLoop=1;jettySize=auto;html=1;exitX=0.5;exitY=1;exitDx=0;exitDy=0;entryX=0.5;entryY=0;entryDx=0;entryDy=0;dashed=1;" edge="1" parent="WIyWlLk6GJQsqaUBKTNV-1" source="979sxYHgOyVCNlJxATBu-4" target="979sxYHgOyVCNlJxATBu-28">
          <mxGeometry relative="1" as="geometry">
            <Array as="points">
              <mxPoint x="660" y="240" />
              <mxPoint x="837" y="240" />
            </Array>
          </mxGeometry>
        </mxCell>
        <mxCell id="979sxYHgOyVCNlJxATBu-44" style="edgeStyle=orthogonalEdgeStyle;rounded=0;orthogonalLoop=1;jettySize=auto;html=1;exitX=0.5;exitY=1;exitDx=0;exitDy=0;entryX=0.5;entryY=0;entryDx=0;entryDy=0;dashed=1;" edge="1" parent="WIyWlLk6GJQsqaUBKTNV-1" source="979sxYHgOyVCNlJxATBu-4" target="979sxYHgOyVCNlJxATBu-30">
          <mxGeometry relative="1" as="geometry">
            <Array as="points">
              <mxPoint x="660" y="240" />
              <mxPoint x="960" y="240" />
            </Array>
          </mxGeometry>
        </mxCell>
        <mxCell id="979sxYHgOyVCNlJxATBu-46" style="edgeStyle=orthogonalEdgeStyle;rounded=0;orthogonalLoop=1;jettySize=auto;html=1;exitX=0.5;exitY=1;exitDx=0;exitDy=0;entryX=0.5;entryY=0;entryDx=0;entryDy=0;dashed=1;" edge="1" parent="WIyWlLk6GJQsqaUBKTNV-1" source="979sxYHgOyVCNlJxATBu-4" target="979sxYHgOyVCNlJxATBu-32">
          <mxGeometry relative="1" as="geometry">
            <Array as="points">
              <mxPoint x="660" y="240" />
              <mxPoint x="1085" y="240" />
            </Array>
          </mxGeometry>
        </mxCell>
        <mxCell id="979sxYHgOyVCNlJxATBu-4" value="EditQuestionModal" style="rounded=0;whiteSpace=wrap;html=1;" vertex="1" parent="WIyWlLk6GJQsqaUBKTNV-1">
          <mxGeometry x="600" y="120" width="120" height="60" as="geometry" />
        </mxCell>
        <mxCell id="979sxYHgOyVCNlJxATBu-9" value="QuestionSearchBar" style="rounded=0;whiteSpace=wrap;html=1;" vertex="1" parent="WIyWlLk6GJQsqaUBKTNV-1">
          <mxGeometry x="310" y="120" width="120" height="60" as="geometry" />
        </mxCell>
        <mxCell id="979sxYHgOyVCNlJxATBu-11" value="DeleteCfmModal" style="rounded=0;whiteSpace=wrap;html=1;" vertex="1" parent="WIyWlLk6GJQsqaUBKTNV-1">
          <mxGeometry x="180" y="120" width="120" height="60" as="geometry" />
        </mxCell>
        <mxCell id="979sxYHgOyVCNlJxATBu-13" value="ViewQuestionModal" style="rounded=0;whiteSpace=wrap;html=1;" vertex="1" parent="WIyWlLk6GJQsqaUBKTNV-1">
          <mxGeometry x="870" y="120" width="120" height="60" as="geometry" />
        </mxCell>
        <mxCell id="979sxYHgOyVCNlJxATBu-35" value="" style="group" vertex="1" connectable="0" parent="WIyWlLk6GJQsqaUBKTNV-1">
          <mxGeometry x="32" y="350" width="1105" height="30" as="geometry" />
        </mxCell>
        <mxCell id="979sxYHgOyVCNlJxATBu-16" value="TitleInput" style="rounded=0;whiteSpace=wrap;html=1;" vertex="1" parent="979sxYHgOyVCNlJxATBu-35">
          <mxGeometry width="105.00000000000003" height="30" as="geometry" />
        </mxCell>
        <mxCell id="979sxYHgOyVCNlJxATBu-18" value="ComplexityInput" style="rounded=0;whiteSpace=wrap;html=1;" vertex="1" parent="979sxYHgOyVCNlJxATBu-35">
          <mxGeometry x="131.25" width="105.00000000000003" height="30" as="geometry" />
        </mxCell>
        <mxCell id="979sxYHgOyVCNlJxATBu-20" value="ConstraintsInput" style="rounded=0;whiteSpace=wrap;html=1;" vertex="1" parent="979sxYHgOyVCNlJxATBu-35">
          <mxGeometry x="262.5" width="105.00000000000003" height="30" as="geometry" />
        </mxCell>
        <mxCell id="979sxYHgOyVCNlJxATBu-22" value="DescriptionInput" style="rounded=0;whiteSpace=wrap;html=1;" vertex="1" parent="979sxYHgOyVCNlJxATBu-35">
          <mxGeometry x="385" width="105.00000000000003" height="30" as="geometry" />
        </mxCell>
        <mxCell id="979sxYHgOyVCNlJxATBu-24" value="ExamplesInput" style="rounded=0;whiteSpace=wrap;html=1;" vertex="1" parent="979sxYHgOyVCNlJxATBu-35">
          <mxGeometry x="507.5" width="105.00000000000003" height="30" as="geometry" />
        </mxCell>
        <mxCell id="979sxYHgOyVCNlJxATBu-26" value="FollowUpInput" style="rounded=0;whiteSpace=wrap;html=1;" vertex="1" parent="979sxYHgOyVCNlJxATBu-35">
          <mxGeometry x="630" width="105.00000000000003" height="30" as="geometry" />
        </mxCell>
        <mxCell id="979sxYHgOyVCNlJxATBu-28" value="StarterCodeInput" style="rounded=0;whiteSpace=wrap;html=1;" vertex="1" parent="979sxYHgOyVCNlJxATBu-35">
          <mxGeometry x="752.5" width="105.00000000000003" height="30" as="geometry" />
        </mxCell>
        <mxCell id="979sxYHgOyVCNlJxATBu-30" value="TestCasesInput" style="rounded=0;whiteSpace=wrap;html=1;" vertex="1" parent="979sxYHgOyVCNlJxATBu-35">
          <mxGeometry x="875" width="105.00000000000003" height="30" as="geometry" />
        </mxCell>
        <mxCell id="979sxYHgOyVCNlJxATBu-32" value="CategoriesInput" style="rounded=0;whiteSpace=wrap;html=1;" vertex="1" parent="979sxYHgOyVCNlJxATBu-35">
          <mxGeometry x="1000" width="105.00000000000003" height="30" as="geometry" />
        </mxCell>
      </root>
    </mxGraphModel>
  </diagram>
</mxfile>
